<svg xmlns="http://www.w3.org/2000/svg" xmlns:xlink="http://www.w3.org/1999/xlink" viewBox="0 0 480 304"><defs><style>.cls-1{fill:url(#名称未設定グラデーション_5);}.cls-2{font-size:97.73px;}.cls-2,.cls-3{fill:#515151;font-family:TsukuBRdGothic-Regular-83pv-RKSJ-H, Tsukushi B Round Gothic;}.cls-3{font-size:100px;}</style><linearGradient id="名称未設定グラデーション_5" x1="240" y1="322" x2="240" y2="-78.32" gradientTransform="matrix(1, 0, 0, -1, 0, 306)" gradientUnits="userSpaceOnUse"><stop offset="0" stop-color="#006df0"/><stop offset="1" stop-color="#00e7f0"/></linearGradient></defs><title>アセット 2</title><g id="レイヤー_2" data-name="レイヤー 2"><g id="レイヤー_1-2" data-name="レイヤー 1"><path class="cls-1" d="M440,0H40A40,40,0,0,0,0,40V264a40,40,0,0,0,40,40H440a40,40,0,0,0,40-40V40A40,40,0,0,0,440,0Zm24,264a24,24,0,0,1-24,24H40a24,24,0,0,1-24-24V40A24,24,0,0,1,40,16H440a24,24,0,0,1,24,24Z"/><text class="cls-2" transform="translate(65.2 193.24) rotate(-5.82)">C</text><text class="cls-3" transform="translate(136.12 178.54)">-mero</text></g></g></svg>