<?xml version="1.0" encoding="iso-8859-1"?>
<!-- Generator: Adobe Illustrator 19.0.0, SVG Export Plug-In . SVG Version: 6.00 Build 0)  -->
<svg xmlns="http://www.w3.org/2000/svg" xmlns:xlink="http://www.w3.org/1999/xlink" version="1.1" id="Layer_1" x="0px" y="0px" viewBox="0 0 512 512" style="enable-background:new 0 0 512 512;" xml:space="preserve" width="512" height="512">
<g>
	<g>
		<g>
			<g>
				<path style="fill:#345863;" d="M387.105,165.233l-90.08,43.611l0,0v0L86.259,165.25c-30.096-6.225-59.54,13.127-65.764,43.222      l-19.33,93.459c-6.225,30.096,13.126,59.54,43.222,65.764l210.765,43.593l65.389,75.767      c10.491,12.156,30.369,6.995,33.621-8.729l60.342-291.743C417.757,170.858,401.558,158.235,387.105,165.233z"/>
				<g>
					<path style="fill:#1E4751;" d="M266.287,357.403L55.521,313.809c-29.959-6.196-49.262-35.403-43.296-65.356L1.164,301.931       c-6.225,30.096,13.126,59.54,43.222,65.764l210.765,43.593l65.389,75.767c10.491,12.156,30.369,6.995,33.621-8.729l3.485-16.85       L266.287,357.403z"/>
				</g>
				<g>
					<g>
						<path style="fill:#EDEDED;" d="M320.541,487.056l-65.389-75.767l41.872-202.445l90.08-43.611        c14.453-6.997,30.652,5.626,27.4,21.35l-60.342,291.744C350.91,494.051,331.032,499.212,320.541,487.056z"/>
					</g>
				</g>
				<path style="fill:#D6D6D6;" d="M357.647,461.476l-91.352-104.064l-11.143,53.876l65.389,75.767      c10.491,12.156,30.369,6.995,33.621-8.729L357.647,461.476L357.647,461.476z"/>
				<g>
					<path style="fill:#EDEDED;" d="M143.752,276.517H84.437V34.099c0-8.771,7.11-15.881,15.881-15.881h27.552       c8.771,0,15.881,7.11,15.881,15.881V276.517z"/>
					<circle style="fill:#FF9C43;" cx="114.094" cy="274.477" r="46.121"/>
					<circle style="fill:#EDEDED;" cx="114.094" cy="274.477" r="17.522"/>
				</g>
			</g>
			<g>
				<g>
					<g>
						<path style="fill:#D6D6D6;" d="M423.929,288.678c-2.573,0-5.065-1.372-6.381-3.791c-1.913-3.521-0.61-7.926,2.91-9.84        l80.821-43.934c3.52-1.913,7.925-0.61,9.84,2.91c1.913,3.521,0.61,7.926-2.91,9.84l-80.821,43.934        C426.287,288.394,425.1,288.678,423.929,288.678z"/>
					</g>
					<g>
						<path style="fill:#D6D6D6;" d="M456.645,473.942c-2.167,0-4.31-0.966-5.74-2.811l-56.339-72.72        c-2.454-3.167-1.876-7.725,1.291-10.179c3.167-2.455,7.724-1.875,10.179,1.291l56.339,72.72        c2.454,3.167,1.876,7.725-1.291,10.179C459.761,473.446,458.197,473.942,456.645,473.942z"/>
					</g>
				</g>
				<g>
					<path style="fill:#D6D6D6;" d="M480.699,359.344c-0.494,0-0.995-0.051-1.497-0.157l-68.579-14.393       c-3.922-0.823-6.433-4.669-5.61-8.59c0.823-3.921,4.672-6.436,8.59-5.61l68.579,14.393c3.922,0.823,6.433,4.669,5.61,8.59       C487.075,356.996,484.058,359.344,480.699,359.344z"/>
				</g>
			</g>
		</g>
		<g>
			<g>
				<path style="fill:#EDEDED;" d="M257.04,236.724c-0.519,0-1.045-0.053-1.573-0.162l-54.785-11.332      c-4.178-0.864-6.865-4.953-6.001-9.132c0.865-4.178,4.952-6.861,9.132-6.001l54.785,11.332c4.178,0.864,6.865,4.953,6.001,9.132      C263.843,234.211,260.627,236.724,257.04,236.724z"/>
			</g>
			<g>
				<path style="fill:#EDEDED;" d="M250.507,265.784c-0.519,0-1.045-0.053-1.573-0.162l-54.786-11.332      c-4.178-0.864-6.865-4.953-6.001-9.132c0.864-4.178,4.954-6.863,9.132-6.001l54.786,11.332c4.178,0.864,6.865,4.953,6.001,9.132      C257.31,263.271,254.094,265.784,250.507,265.784z"/>
			</g>
		</g>
	</g>
</g>















</svg>
