<svg height="512pt" viewBox="0 0 512 512" width="512pt" xmlns="http://www.w3.org/2000/svg" xmlns:xlink="http://www.w3.org/1999/xlink"><linearGradient id="a" gradientUnits="userSpaceOnUse" x1="0" x2="512" y1="256" y2="256"><stop offset="0" stop-color="#80d8ff"/><stop offset="1" stop-color="#ea80fc"/></linearGradient><path d="m480.527344 71.171875c-118.054688 82.660156-236.644532-71.171875-384.527344-71.171875h-76c-11.046875 0-20 8.953125-20 20v472c0 11.046875 8.953125 20 20 20h76c11.046875 0 20-8.953125 20-20v-168.25c118.785156 10.058594 251.585938 158.535156 387.472656 63.386719 5.34375-3.742188 8.527344-9.859375 8.527344-16.382813v-283.199218c0-16.125-18.207031-25.675782-31.472656-16.382813zm-404.527344 400.828125h-36v-432h36zm188-138.578125c-.339844-.160156-.679688-.324219-1.019531-.484375-47.578125-22.585938-96.574219-45.851562-146.980469-49.300781v-103.089844c48.269531 4.085937 99.410156 31.179687 148 53.914063zm0-143.199219c-.339844-.160156-.679688-.324218-1.023438-.484375-47.574218-22.589843-96.570312-45.839843-146.976562-49.289062v-99.910157c48.265625 4.089844 99.414062 31.1875 148 53.921876zm208 169.722656c-54.246094 32.953126-109.441406 17.722657-168-8.011718v-99.785156c56.453125 22.957031 111.945312 34.246093 168 9.621093zm0-143.207031c-54.253906 32.957031-109.4375 17.730469-168-8.003906v-96.585937c56.378906 22.925781 111.921875 34.261718 168 9.625zm0 0" fill="url(#a)"/></svg>